<?xml version="1.0" encoding="utf-8"?>
<!-- Generator: Adobe Illustrator 24.2.0, SVG Export Plug-In . SVG Version: 6.00 Build 0)  -->
<svg version="1.1" id="Layer_1" xmlns="http://www.w3.org/2000/svg" xmlns:xlink="http://www.w3.org/1999/xlink" x="0px" y="0px"
	 viewBox="0 0 256 256" style="enable-background:new 0 0 256 256;" xml:space="preserve">
<style type="text/css">
	.st0{fill:none;}
	.st1{fill:#F2B203;}
</style>
<g id="Layer_2_1_">
	<g id="Layer_1-2">
		<rect class="st0" width="256" height="256"/>
		<rect y="216.8" class="st1" width="256" height="39.2"/>
		<path d="M37.5,226.9h7c3.2,0,5.2,2,5.2,4.4c0.1,1.7-0.9,3.2-2.4,3.9c2,0.6,3.4,2.5,3.4,4.6c0,3.4-2.5,5.7-6.5,5.7h-6.7V226.9z
			 M44,234c1,0,1.9-0.8,1.9-1.8s-0.8-1.9-1.8-1.9c0,0,0,0,0,0h-2.6v3.7H44z M44,241.9c1.7,0,2.7-0.7,2.7-2.3s-1-2.4-2.7-2.4h-2.6
			v4.7L44,241.9z"/>
		<path d="M65.5,239.8h-9.8c0.1,1.7,1.5,3,3.1,3c1.3,0.1,2.6-0.7,3-2h3.6c-0.6,3.2-3,5.1-6.5,5.1c-3.7,0.1-6.7-2.7-6.9-6.4
			c0-0.2,0-0.4,0-0.6c-0.1-3.7,2.9-6.8,6.6-6.9c0.1,0,0.1,0,0.2,0c4.2,0,6.7,2.5,6.7,7.2V239.8z M55.9,237H62
			c-0.4-1.4-1.7-2.3-3.1-2.1C57.5,234.8,56.3,235.7,55.9,237z"/>
		<path d="M66.8,241.2h3.8c-0.1,0.8,0.5,1.4,1.3,1.5c0.1,0,0.1,0,0.2,0c0.9,0,1.4-0.4,1.4-1.1s-0.6-1.1-1.8-1.5l-1.7-0.5
			c-1.7-0.4-2.9-1.9-2.9-3.6c0-2.4,2.2-4,4.9-4c3.1,0,4.8,1.8,4.8,4.2h-3.5c0-0.7-0.6-1.3-1.3-1.3c0,0,0,0,0,0
			c-0.7,0-1.2,0.4-1.2,0.9s0.5,0.9,1.5,1.2l1.9,0.5c1.8,0.3,3,1.9,3,3.6c-0.1,2.6-2.2,4.7-4.8,4.6c-0.1,0-0.1,0-0.2,0
			C69.1,245.9,66.8,244.1,66.8,241.2z"/>
		<path d="M83.5,235.4v5c-0.1,0.8,0.4,1.5,1.2,1.6c0.1,0,0.3,0,0.4,0h1.5v3.4h-2.7c-2.4,0-4.1-1.6-4.1-4.4v-5.7h-1.9v-3.1h1.9V229
			h3.7v3.4h3.1v3.1L83.5,235.4z"/>
		<path d="M93.6,238.9c-0.1-3.9,3-7.2,6.9-7.3c3.9-0.1,7.2,3,7.3,6.9c0.1,3.9-3,7.2-6.9,7.3c-0.1,0-0.1,0-0.2,0
			c-3.8,0.2-6.9-2.7-7.1-6.5C93.6,239.2,93.6,239.1,93.6,238.9z M104.1,238.9c-0.1-1.9-1.6-3.3-3.5-3.3c-1.9,0.1-3.3,1.6-3.3,3.5
			c0.1,1.8,1.6,3.3,3.4,3.3c1.8,0,3.3-1.4,3.4-3.2C104.1,239.1,104.1,239,104.1,238.9z"/>
		<path d="M114.2,231.9v0.5h3.1v3.1h-3.1v10.1h-3.7v-10.1h-1.9v-3.1h1.9v-0.9c-0.2-2.3,1.5-4.4,3.9-4.6c0.2,0,0.3,0,0.5,0h2.4v3.4
			h-1.5c-0.8-0.1-1.5,0.4-1.6,1.2C114.1,231.6,114.1,231.8,114.2,231.9z"/>
		<path d="M129.3,235.4v5c-0.1,0.8,0.4,1.5,1.2,1.6c0.1,0,0.3,0,0.4,0h1.5v3.4h-2.7c-2.4,0-4.1-1.6-4.1-4.4v-5.7h-1.9v-3.1h1.9V229
			h3.7v3.4h3.1v3.1L129.3,235.4z"/>
		<path d="M134.5,226.9h3.7v7.3c0.9-1.4,2.5-2.2,4.2-2.2c2.6,0,4.4,1.8,4.4,4.9v8.7h-3.7v-7.6c0-1.4-1.1-2.5-2.4-2.5
			c-1.4,0-2.5,1.1-2.5,2.4c0,0,0,0,0,0v7.6h-3.7V226.9z"/>
		<path d="M162.2,239.8h-9.8c0.1,1.7,1.5,3,3.1,3c1.3,0.1,2.6-0.7,3-2h3.6c-0.6,3.2-3,5.1-6.5,5.1c-3.7,0.1-6.7-2.8-6.8-6.4
			c0-0.2,0-0.3,0-0.5c-0.1-3.7,2.8-6.8,6.6-6.9c0.1,0,0.2,0,0.3,0c4.1,0,6.6,2.5,6.6,7.2L162.2,239.8z M152.7,237h6.1
			c-0.4-1.4-1.7-2.3-3.1-2.1C154.3,234.8,153.1,235.7,152.7,237L152.7,237z"/>
		<path d="M169.8,226.9h7c3.2,0,5.2,2,5.2,4.4c0.1,1.7-0.9,3.2-2.4,3.9c2,0.6,3.4,2.5,3.4,4.6c0,3.4-2.5,5.7-6.5,5.7h-6.7V226.9z
			 M176.4,234c1,0,1.9-0.8,1.9-1.8s-0.8-1.9-1.8-1.9c0,0,0,0,0,0h-2.6v3.7L176.4,234z M176.3,241.9c1.7,0,2.7-0.7,2.7-2.3
			s-1-2.4-2.7-2.4h-2.6v4.7L176.3,241.9z"/>
		<path d="M197.8,239.8H188c0.1,1.7,1.5,3,3.1,3c1.3,0.1,2.6-0.7,3-2h3.6c-0.6,3.2-3,5.1-6.5,5.1c-3.7,0.1-6.7-2.8-6.8-6.4
			c0-0.2,0-0.3,0-0.5c-0.1-3.7,2.8-6.8,6.6-6.9c0.1,0,0.2,0,0.3,0c4.1,0,6.6,2.5,6.6,7.2L197.8,239.8z M188.2,237h6.1
			c-0.4-1.4-1.7-2.3-3.1-2.1C189.8,234.8,188.6,235.7,188.2,237L188.2,237z"/>
		<path d="M199.1,241.2h3.8c-0.1,0.8,0.5,1.4,1.3,1.5c0.1,0,0.1,0,0.2,0c0.9,0,1.4-0.4,1.4-1.1s-0.6-1.1-1.8-1.5l-1.7-0.5
			c-1.7-0.4-2.9-1.9-2.9-3.6c0-2.4,2.2-4,4.9-4c3.1,0,4.8,1.8,4.8,4.2h-3.5c0-0.7-0.6-1.3-1.3-1.3c0,0,0,0,0,0
			c-0.7,0-1.2,0.4-1.2,0.9s0.5,0.9,1.5,1.2l1.9,0.5c1.8,0.3,3,1.9,3,3.6c0,2.6-2.2,4.7-4.8,4.6c-0.1,0-0.2,0-0.3,0
			C201.4,245.9,199.1,244.1,199.1,241.2z"/>
		<path d="M215.9,235.4v5c-0.1,0.8,0.4,1.5,1.2,1.6c0.1,0,0.3,0,0.4,0h1.5v3.4h-2.7c-2.4,0-4.1-1.6-4.1-4.4v-5.7h-1.9v-3.1h1.9V229
			h3.7v3.4h3.1v3.1L215.9,235.4z"/>
		<path d="M128,73.5c-27.2,0-49.2,22-49.2,49.2s22,49.2,49.2,49.2s49.2-22,49.2-49.2l0,0C177.2,95.5,155.2,73.5,128,73.5z
			 M128,166.4c-24.1,0-43.7-19.6-43.7-43.7S103.9,79,128,79s43.7,19.6,43.7,43.7S152.1,166.4,128,166.4L128,166.4z M117.1,126
			c0,3.3-2.7,6-6,6s-6-2.7-6-6s2.7-6,6-6l0,0C114.4,120,117.1,122.7,117.1,126z M151,126c0,3.3-2.7,6-6,6s-6-2.7-6-6s2.7-6,6-6l0,0
			C148.3,120,151,122.7,151,126z M156.4,113.5l5.6-6h-12.3c-13-8.9-30.2-8.9-43.2,0H94.1l5.6,6c-7.2,6.1-8.1,16.8-2,24
			c6.1,7.2,16.8,8.1,24,2c0.4-0.3,0.7-0.6,1-1l5.4,5.9l5.4-5.9c6.6,6.6,17.4,6.6,24,0c6.6-6.6,6.6-17.4,0-24
			C157.2,114.1,156.9,113.8,156.4,113.5L156.4,113.5z M111.1,137.5c-6.3,0-11.5-5.1-11.5-11.5c0-6.3,5.1-11.5,11.5-11.5
			c6.3,0,11.5,5.1,11.5,11.5c0,0,0,0,0,0C122.6,132.3,117.4,137.5,111.1,137.5C111.1,137.5,111.1,137.5,111.1,137.5L111.1,137.5z
			 M128.1,125.7c0-7.6-5.5-14-12.7-16.8c8.2-3.4,17.3-3.4,25.5,0C133.5,111.7,128,118.2,128.1,125.7L128.1,125.7z M145.1,137.5
			c-6.3,0-11.5-5-11.6-11.4c0-6.3,5-11.5,11.4-11.6c6.3,0,11.5,5,11.6,11.4c0,0,0,0.1,0,0.1C156.5,132.3,151.4,137.5,145.1,137.5
			C145,137.5,145,137.5,145.1,137.5L145.1,137.5z"/>
		<path d="M100.7,177.1c0,0-6-4.6-16.7-5.9c-6.5-0.7-13.1,0.9-18.6,4.4c5.8,2.1,11.9,3.5,18,4C94.4,180.8,100.7,177.1,100.7,177.1z"
			/>
		<path d="M84,167.6c-4.4-4.1-9.6-7.3-15.3-9.3c-6.3-2.3-13.1-2.8-19.7-1.4c4.9,4.3,10.6,7.6,16.8,9.9C76.4,170.8,84,167.6,84,167.6
			z"/>
		<path d="M68,154.6c-2.7-5.8-6.6-11-11.4-15.3c-5.3-4.7-11.8-7.8-18.7-9c3.2,6.2,7.5,11.7,12.6,16.4C59.3,154.8,68,154.6,68,154.6z
			"/>
		<path d="M64.9,139.9c-1.1-6.3-3.5-12.4-7-17.8c-3.8-5.9-9.3-10.6-15.7-13.5c1.5,6.8,4.1,13.3,7.9,19.2
			C56.5,138,64.9,139.9,64.9,139.9z"/>
		<path d="M65.3,120.3c-0.5-6.5-2.3-12.8-5.3-18.6c-3.2-6.3-8.1-11.5-14.2-15.1c0.8,7,2.8,13.8,6,20.1
			C57.2,117.6,65.3,120.3,65.3,120.3z"/>
		<path d="M89.1,162.1c-2.2-4.8-5.3-9-9.2-12.6c-4.3-3.9-9.5-6.5-15.2-7.5c2.6,5.1,6,9.7,10.2,13.5C82,162.2,89.1,162.1,89.1,162.1z
			"/>
		<path d="M106.1,171.4c-2.9-2.5-6.2-4.5-9.8-5.8c-3.9-1.5-8.2-1.9-12.3-1.3c3.2,2.6,6.8,4.7,10.7,6.2
			C101.4,173.1,106.1,171.4,106.1,171.4z"/>
		<path d="M122.6,174.7c-2.9-1-5.9-1.5-9-1.3c-3.3,0.2-6.6,1.2-9.3,3.1c3.1,1,6.4,1.4,9.7,1.3C119.7,177.6,122.6,174.7,122.6,174.7z
			"/>
		<path d="M81.7,147c-1.2-5.1-3.4-10-6.4-14.2c-3.4-4.7-8-8.3-13.3-10.4c1.5,5.5,3.9,10.7,7.2,15.3C74.8,145.7,81.7,147,81.7,147z"
			/>
		<path d="M75.1,126.7c0.7-5.3,0.4-10.6-0.9-15.8c-1.4-5.6-4.4-10.6-8.6-14.6c-0.6,5.7-0.2,11.5,1.2,17.1
			C69.1,123,75.1,126.7,75.1,126.7z"/>
		<path d="M155.4,177.1c0,0,6-4.6,16.7-5.9c6.5-0.7,13.1,0.9,18.6,4.4c-5.8,2.1-11.9,3.5-18.1,4
			C161.7,180.8,155.4,177.1,155.4,177.1z"/>
		<path d="M172.1,167.6c4.4-4.1,9.6-7.3,15.3-9.3c6.3-2.3,13.1-2.8,19.6-1.4c-4.9,4.3-10.6,7.6-16.8,9.9
			C179.7,170.8,172.1,167.6,172.1,167.6z"/>
		<path d="M188,154.6c2.7-5.8,6.6-11,11.4-15.3c5.3-4.7,11.8-7.8,18.7-9c-3.2,6.2-7.5,11.7-12.6,16.4
			C196.7,154.8,188,154.6,188,154.6z"/>
		<path d="M191.1,139.9c1.1-6.3,3.5-12.4,7-17.8c3.8-5.9,9.3-10.6,15.7-13.5c-1.5,6.8-4.1,13.3-7.9,19.2
			C199.5,138,191.1,139.9,191.1,139.9z"/>
		<path d="M190.7,120.3c0.6-6.5,2.4-12.8,5.3-18.6c3.2-6.3,8.1-11.5,14.2-15.1c-0.8,7-2.9,13.8-6.1,20.1
			C198.8,117.6,190.7,120.3,190.7,120.3z"/>
		<path d="M166.9,162.1c2.2-4.8,5.3-9,9.2-12.6c4.3-3.9,9.5-6.5,15.2-7.5c-2.6,5.1-6,9.6-10.2,13.5
			C174,162.2,166.9,162.1,166.9,162.1z"/>
		<path d="M150,171.4c2.9-2.5,6.2-4.5,9.8-5.8c3.9-1.5,8.1-1.9,12.2-1.3c-3.2,2.6-6.8,4.7-10.7,6.2C154.6,173.1,150,171.4,150,171.4
			z"/>
		<path d="M133.5,174.7c2.9-1,5.9-1.5,9-1.3c3.3,0.2,6.6,1.2,9.4,3.1c-3.1,1-6.4,1.4-9.7,1.3C136.3,177.6,133.5,174.7,133.5,174.7z"
			/>
		<path d="M174.3,147c1.2-5.1,3.4-10,6.4-14.2c3.4-4.7,8-8.3,13.3-10.4c-1.5,5.5-3.9,10.7-7.2,15.3C181.3,145.7,174.3,147,174.3,147
			z"/>
		<path d="M181,126.7c-0.7-5.3-0.4-10.6,0.9-15.8c1.4-5.6,4.4-10.6,8.5-14.6c0.6,5.7,0.2,11.5-1.2,17.1
			C186.9,123,181,126.7,181,126.7z"/>
		<circle cx="128" cy="177.1" r="2.7"/>
		<path d="M72,19h-6.4v18.8h-4.9V19h-6.4v-4.6H72V19z"/>
		<path d="M80.7,21.3v4.4h-2.5c-1.3-0.2-2.5,0.7-2.7,2c0,0.2,0,0.5,0,0.7v9.4h-4.7V21.3h4.3v3.1c0.1-1.8,1.7-3.1,3.4-3.1H80.7z"/>
		<path d="M81.4,29.6c0-4.8,3.4-8.7,8.2-8.7c1.9-0.1,3.8,0.6,5.2,1.9v-1.4h4.3v16.5h-4.3v-2c-1.2,1.7-3.2,2.6-5.3,2.5
			C84.8,38.3,81.4,34.4,81.4,29.6z M94.7,29.6c0-2.4-1.9-4.3-4.3-4.3c-2.4,0-4.3,1.9-4.3,4.3c0,0,0,0,0,0c0,2.4,1.9,4.3,4.3,4.3
			C92.8,33.9,94.7,32,94.7,29.6C94.7,29.6,94.7,29.6,94.7,29.6z"/>
		<path d="M100.9,21.3h5l2.5,8.7c0.3,1,0.5,1.7,0.6,2.4c0.2-0.8,0.3-1.4,0.6-2.4l2.5-8.7h5l-5.5,16.5h-5.3L100.9,21.3z"/>
		<path d="M134.1,30.7h-12.3c0.1,2.1,1.8,3.7,3.9,3.7c1.7,0.1,3.2-0.9,3.7-2.5h4.5c-0.8,4-3.8,6.4-8.2,6.4c-4.6,0.1-8.4-3.5-8.6-8.1
			c0-0.2,0-0.4,0-0.7c-0.1-4.7,3.6-8.6,8.2-8.7c0.1,0,0.2,0,0.3,0c5.2,0,8.4,3.2,8.4,9.1V30.7z M122.1,27.2h7.6
			c-0.5-1.7-2.1-2.9-3.9-2.7C124.1,24.5,122.6,25.6,122.1,27.2L122.1,27.2z"/>
		<path d="M136.3,14.4h4.7v23.4h-4.7V14.4z"/>
		<path d="M143.8,14.4h4.7v23.4h-4.7V14.4z"/>
		<path d="M167.4,30.7h-12.3c0.1,2.1,1.8,3.8,3.9,3.7c1.7,0.1,3.2-0.9,3.7-2.5h4.5c-0.8,4-3.8,6.4-8.2,6.4c-4.6,0.1-8.4-3.5-8.6-8.1
			c0-0.2,0-0.4,0-0.7c-0.1-4.7,3.6-8.6,8.2-8.7c0.1,0,0.2,0,0.3,0c5.2,0,8.4,3.2,8.4,9.1L167.4,30.7z M155.4,27.2h7.6
			c-0.5-1.7-2.1-2.9-3.9-2.7C157.4,24.5,155.9,25.6,155.4,27.2L155.4,27.2z"/>
		<path d="M179.4,21.3v4.4H177c-1.3-0.2-2.5,0.7-2.7,2c0,0.2,0,0.5,0,0.7v9.4h-4.7V21.3h4.3v3.1c0.1-1.8,1.7-3.1,3.4-3.1H179.4z"/>
		<path d="M180.7,32.4h4.8c-0.1,1,0.6,1.8,1.6,1.9c0.1,0,0.2,0,0.2,0c1.1,0,1.8-0.5,1.8-1.4s-0.7-1.4-2.2-1.8l-2.2-0.6
			c-2.2-0.5-3.7-2.4-3.7-4.6c0-3,2.7-5,6.1-5c3.9,0,6,2.2,6,5.3h-4.4c0-0.9-0.7-1.6-1.6-1.6c0,0,0,0-0.1,0c-0.9,0-1.6,0.5-1.6,1.2
			s0.6,1.1,1.9,1.5l2.4,0.7c2.2,0.4,3.8,2.3,3.7,4.6c0,3.1-2.4,5.8-6.3,5.8C183.6,38.3,180.7,36.1,180.7,32.4z"/>
		<path d="M195.5,22h0.4c1.3,0,2.3-0.9,2.4-2.2c0,0,0-0.1,0-0.1c-0.2,0.1-0.4,0.1-0.7,0.1c-1.6,0-2.9-1.2-2.9-2.8c0,0,0-0.1,0-0.1
			c0-1.6,1.3-2.9,2.9-2.9c2.1,0,3.3,1.9,3.3,4.5c0,4.1-2,6-4.7,6h-0.7V22z"/>
		<path d="M75.6,56.2c-0.3-6.5,4.8-11.9,11.3-12.2c0.2,0,0.4,0,0.5,0c6.3,0,10.2,3.5,11.1,9h-5c-0.7-2.7-3.3-4.6-6.1-4.4
			c-3.8,0-6.8,3.1-6.8,7.5s3.1,7.5,6.8,7.5c3.1,0,5.3-1.6,6.1-4.4h5.1c-1,5.6-5.4,9-11.2,9C80.8,68.3,75.6,63.4,75.6,56.2z"/>
		<path d="M100.7,44.5h4.7v9.1c1.1-1.8,3.1-2.8,5.2-2.7c3.3,0,5.6,2.3,5.6,6.1v10.9h-4.7v-9.5c0.1-1.7-1.2-3.2-2.9-3.3
			c-1.7-0.1-3.2,1.2-3.3,2.9c0,0.1,0,0.2,0,0.4v9.6h-4.7V44.5z"/>
		<path d="M118,59.6c-0.1-4.9,3.8-9,8.7-9.1c4.9-0.1,9,3.8,9.1,8.7c0.1,4.9-3.8,9-8.7,9.1c0,0-0.1,0-0.1,0c-4.7,0.3-8.7-3.3-9-8
			C118,60.1,118,59.9,118,59.6z M131.2,59.6c-0.1-2.3-2-4.2-4.4-4.1s-4.2,2-4.1,4.4c0.1,2.3,2,4.2,4.3,4.1c2.3,0,4.2-1.8,4.2-4.1
			C131.2,59.8,131.2,59.7,131.2,59.6L131.2,59.6z"/>
		<path d="M137.2,46.3c0-1.6,1.3-2.9,2.9-2.9s2.9,1.3,2.9,2.9c0,1.6-1.3,2.9-2.9,2.9C138.5,49.3,137.2,48,137.2,46.3
			C137.2,46.4,137.2,46.3,137.2,46.3z M137.8,51.3h4.7v16.5h-4.7V51.3z"/>
		<path d="M144.4,59.6c-0.1-4.7,3.5-8.6,8.2-8.7c0.2,0,0.3,0,0.5,0c5.2,0,8,2.8,8.5,6.7h-4.9c-0.5-1.5-2-2.5-3.6-2.3
			c-2.4,0.2-4.2,2.3-4.1,4.7c0.1,2.2,1.9,3.9,4.1,4.1c1.6,0.2,3.1-0.8,3.6-2.3h4.9c-0.8,4-3.5,6.6-8.5,6.6c-4.7,0.1-8.6-3.5-8.7-8.2
			C144.4,60,144.4,59.8,144.4,59.6z"/>
		<path d="M179.5,60.7h-12.3c0.1,2.1,1.9,3.8,4,3.7c1.7,0.1,3.2-0.9,3.7-2.5h4.5c-0.8,4-3.8,6.4-8.2,6.4c-4.6,0.1-8.5-3.5-8.6-8.1
			c0-0.2,0-0.4,0-0.6c-0.1-4.7,3.6-8.6,8.3-8.7c0.1,0,0.2,0,0.3,0c5.2,0,8.4,3.2,8.4,9.1L179.5,60.7z M167.5,57.2h7.6
			c-0.5-1.7-2.1-2.9-3.9-2.7C169.5,54.5,168,55.6,167.5,57.2L167.5,57.2z"/>
		<polygon points="177.6,45.1 180.9,45.1 180.9,45.8 179.7,45.8 179.7,49.5 178.9,49.5 178.9,45.8 177.6,45.8 		"/>
		<path d="M183.6,48.4l-1.2-3.3h-0.9v4.4h0.7V47c0-0.2,0-0.4,0-0.7l1.1,3.1h0.6l1.1-3.1c0,0.2,0,0.4,0,0.7v2.5h0.7v-4.4h-0.9
			L183.6,48.4z"/>
	</g>
</g>
<g>
	<path d="M97.8,198.9l7.4-6.7c0.9-0.6,1.5-1.6,1.5-2.7c0-1-0.8-1.9-1.8-1.9c-0.1,0-0.2,0-0.3,0c-1.1,0-2.1,0.9-2.1,2v0.1h-4.7
		c0-3.2,2.3-6.2,6.9-6.2c4.3,0,7,2.2,7,5.7c0,2.7-1.5,4.4-3.4,6l-3,2.5h6.6v4.2H97.8V198.9z"/>
	<path d="M113.3,192.8c0-5.2,3.8-9.4,9.6-9.4s9.6,4.2,9.6,9.4s-3.8,9.4-9.6,9.4C117.2,202.2,113.3,198,113.3,192.8z M127.8,192.8
		c-0.1-2.6-2.3-4.7-4.9-4.6c-2.6,0.1-4.7,2.3-4.6,4.9s2.2,4.6,4.8,4.6c2.6,0.1,4.7-2,4.8-4.5C127.8,193.1,127.8,192.9,127.8,192.8z"
		/>
	<path d="M134,198.9l7.4-6.7c0.9-0.6,1.5-1.6,1.5-2.7c0-1-0.8-1.9-1.8-1.9c-0.1,0-0.2,0-0.3,0c-1.1,0-2.1,0.9-2.1,2v0.1H134
		c0-3.2,2.3-6.2,6.9-6.2c4.3,0,7,2.2,7,5.7c0,2.7-1.5,4.4-3.4,6l-3,2.5h6.6v4.2H134V198.9z"/>
	<path d="M154,188.4h-4.3V184h9.1v17.8H154V188.4z"/>
</g>
</svg>
